HIERARCHY
ROOT Hips
{
	OFFSET -1.602300 6.242603 43.997101
	CHANNELS 6 Xposition Yposition Zposition Zrotation Xrotation Yrotation
	JOINT Chest
	{
		OFFSET -0.204900 1.598101 7.917301
		CHANNELS 6 Xposition Yposition Zposition Zrotation Xrotation Yrotation
		JOINT Chest2
		{
			OFFSET 0.000000 0.000000 3.404099
			CHANNELS 6 Xposition Yposition Zposition Zrotation Xrotation Yrotation
			JOINT Neck
			{
				OFFSET 0.000000 0.000000 7.928600
				CHANNELS 6 Xposition Yposition Zposition Zrotation Xrotation Yrotation
				JOINT Head
				{
					OFFSET 0.000000 0.000000 2.173897
					CHANNELS 6 Xposition Yposition Zposition Zrotation Xrotation Yrotation
					End Site
					{
						OFFSET 0.000000 0.000001 10.404503
					}
				}
			}
			JOINT LeftCollar
			{
				OFFSET 2.833800 -1.396299 4.843300
				CHANNELS 6 Xposition Yposition Zposition Zrotation Xrotation Yrotation
				JOINT LeftShoulder
				{
					OFFSET 4.363600 0.000000 0.000000
					CHANNELS 6 Xposition Yposition Zposition Zrotation Xrotation Yrotation
					JOINT LeftElbow
					{
						OFFSET 0.000000 -0.000001 -10.306900
						CHANNELS 6 Xposition Yposition Zposition Zrotation Xrotation Yrotation
						JOINT LeftWrist
						{
							OFFSET 0.000000 -0.000001 -12.404900
							CHANNELS 6 Xposition Yposition Zposition Zrotation Xrotation Yrotation
							End Site
							{
								OFFSET 0.000000 0.000000 -2.173901
							}
						}
					}
				}
			}
			JOINT RightCollar
			{
				OFFSET -2.354800 -1.897200 5.063099
				CHANNELS 6 Xposition Yposition Zposition Zrotation Xrotation Yrotation
				JOINT RightShoulder
				{
					OFFSET -4.375800 0.000000 0.000000
					CHANNELS 6 Xposition Yposition Zposition Zrotation Xrotation Yrotation
					JOINT RightElbow
					{
						OFFSET 0.000000 -0.000001 -10.005001
						CHANNELS 6 Xposition Yposition Zposition Zrotation Xrotation Yrotation
						JOINT RightWrist
						{
							OFFSET 0.000000 -0.000001 -13.174900
							CHANNELS 6 Xposition Yposition Zposition Zrotation Xrotation Yrotation
							End Site
							{
								OFFSET 0.000000 0.000000 -2.173901
							}
						}
					}
				}
			}
		}
	}
	JOINT LeftHip
	{
		OFFSET 2.240600 0.386800 -2.614101
		CHANNELS 6 Xposition Yposition Zposition Zrotation Xrotation Yrotation
		JOINT LeftKnee
		{
			OFFSET 0.000000 -0.000001 -18.592899
			CHANNELS 6 Xposition Yposition Zposition Zrotation Xrotation Yrotation
			JOINT LeftAnkle
			{
				OFFSET 0.000000 -0.000001 -18.765800
				CHANNELS 6 Xposition Yposition Zposition Zrotation Xrotation Yrotation
				End Site
				{
					OFFSET 0.000000 -8.655000 0.000000
				}
			}
		}
	}
	JOINT RightHip
	{
		OFFSET -2.014900 -0.220900 -2.615898
		CHANNELS 6 Xposition Yposition Zposition Zrotation Xrotation Yrotation
		JOINT RightKnee
		{
			OFFSET 0.000000 -0.000001 -18.633900
			CHANNELS 6 Xposition Yposition Zposition Zrotation Xrotation Yrotation
			JOINT RightAnkle
			{
				OFFSET 0.000000 -0.000001 -18.285101
				CHANNELS 6 Xposition Yposition Zposition Zrotation Xrotation Yrotation
				End Site
				{
					OFFSET 0.000000 -7.524500 0.000000
				}
			}
		}
	}
}
MOTION
Frames: 6
Frame Time: 0.041667
-5.643199 23.539900 8.997208 6.008432 24.354312 4.391811 -0.204901 1.598102 7.917306 -5.835470 0.798264 -3.055176 -0.000001 0.000002 3.404103 -1.703290 -18.433757 -2.174846 -0.000001 0.000000 7.928599 3.693195 -6.971265 -3.989192 -0.000000 0.000002 2.173898 -0.665758 -11.499849 1.369298 2.833793 -1.396300 4.843301 27.144997 -3.152793 -43.851030 4.363599 0.000010 -0.000009 -87.266288 -48.118802 -132.544206 0.000002 0.000001 -10.306897 593.902379 -159.050572 556.067994 0.000002 -0.000001 -12.404901 -325.582113 360.744446 -341.314334 -2.354800 -1.897202 5.063100 3.449391 11.808869 -3.557338 -4.375801 0.000007 -0.000013 83.595314 0.819940 152.849224 -0.000001 0.000000 -10.004992 -580.046493 -169.410603 -550.651272 -0.000003 -0.000002 -13.174891 -23.538208 -14.373855 358.065618 2.240596 0.386805 -2.614108 146.142771 -22.514213 117.139930 -0.000000 -0.000004 -18.592894 -110.745220 37.254584 138.915598 0.000001 0.000001 -18.765797 8.846291 37.748137 -27.152930 -2.014898 -0.220898 -2.615904 -124.463873 -10.105973 -111.046226 -0.000000 0.000007 -18.633886 185.457982 26.896501 -185.196618 -0.000008 -0.000004 -18.285089 -7.781247 43.327882 -231.998303
-5.647499 23.551104 9.007710 6.027095 24.093769 4.385493 -0.204901 1.598102 7.917306 -5.876859 0.680723 -3.043449 -0.000001 0.000003 3.404101 -1.692224 -18.402724 -2.171619 -0.000002 0.000003 7.928600 3.670016 -6.514529 -3.948563 0.000000 0.000002 2.173898 -0.542404 -11.318569 1.421787 2.833794 -1.396301 4.843298 26.823761 -2.499619 -45.642227 4.363594 0.000005 -0.000010 -87.465552 -50.748213 -133.392529 0.000006 0.000005 -10.306900 592.452029 -158.634722 556.064934 0.000001 -0.000002 -12.404890 -324.990783 360.706907 -340.836712 -2.354802 -1.897199 5.063103 3.598861 12.044046 -3.656597 -4.375801 0.000007 -0.000009 83.373701 0.814182 153.270647 0.000003 0.000002 -10.004992 -579.281348 -169.053712 -550.711268 0.000002 0.000002 -13.174891 -24.418413 -14.611091 357.431176 2.240597 0.386808 -2.614106 146.025278 -22.529821 116.941363 -0.000000 0.000001 -18.592890 -110.871114 37.071388 138.850123 0.000001 0.000002 -18.765795 9.000431 37.647402 -27.229067 -2.014898 -0.220896 -2.615901 -124.399492 -10.243118 -110.774440 -0.000001 0.000005 -18.633886 185.382986 26.929001 -185.112757 -0.000009 -0.000006 -18.285089 -7.814438 43.264583 -231.849460
-5.651300 23.563801 9.018700 6.044634 23.793037 4.369049 -0.204900 1.598102 7.917307 -5.914888 0.610973 -2.998678 0.000000 0.000002 3.404103 -1.691878 -18.392040 -2.176342 0.000001 -0.000001 7.928600 3.688545 -6.069304 -3.957929 0.000001 0.000001 2.173904 -0.418450 -11.111931 1.461011 2.833794 -1.396305 4.843302 27.756277 -3.465403 -45.524515 4.363596 0.000006 -0.000007 -88.796291 -50.597888 -133.507044 0.000007 0.000001 -10.306894 591.808462 -158.512353 555.851231 0.000005 -0.000001 -12.404896 -324.309348 360.539513 -340.279833 -2.354801 -1.897208 5.063099 3.761744 12.240645 -3.785075 -4.375800 0.000004 -0.000011 83.252035 0.812282 153.616009 -0.000004 0.000004 -10.004992 -578.369491 -168.741012 -550.614880 -0.000003 0.000001 -13.174895 -25.190619 -14.814955 356.585298 2.240598 0.386803 -2.614101 145.896065 -22.594597 116.707374 -0.000001 0.000001 -18.592890 -110.942537 36.853641 138.756823 0.000002 0.000002 -18.765799 9.209266 37.517276 -27.361378 -2.014896 -0.220897 -2.615901 -124.326682 -10.429247 -110.473044 -0.000000 0.000003 -18.633884 185.298593 26.971382 -184.991849 -0.000008 -0.000005 -18.285088 -7.806313 43.218077 -231.767061
-5.654900 23.576704 9.029007 6.052519 23.470511 4.353326 -0.204901 1.598102 7.917312 -5.945077 0.539963 -2.948321 -0.000001 0.000003 3.404101 -1.687018 -18.359813 -2.184176 -0.000001 0.000001 7.928603 3.748538 -5.607479 -3.947179 0.000000 0.000003 2.173905 -0.331031 -10.934312 1.510015 2.833793 -1.396301 4.843303 28.167135 -3.887719 -45.405035 4.363597 0.000009 -0.000009 -89.852061 -50.666808 -134.000990 0.000000 0.000002 -10.306892 590.906494 -158.460293 555.659221 0.000004 -0.000000 -12.404892 -323.615947 360.354251 -339.786502 -2.354802 -1.897202 5.063102 3.883488 12.389724 -3.836469 -4.375801 0.000002 -0.000010 83.208131 0.748409 153.915417 -0.000002 0.000004 -10.004991 -577.346711 -168.449759 -550.442814 0.000000 0.000003 -13.174897 -25.870357 -14.954612 355.620520 2.240597 0.386804 -2.614105 145.777260 -22.698780 116.460804 -0.000000 -0.000002 -18.592892 -110.992323 36.679007 138.660422 0.000003 0.000001 -18.765799 9.353456 37.435314 -27.373732 -2.014898 -0.220900 -2.615901 -124.240567 -10.633618 -110.157264 -0.000000 0.000005 -18.633883 185.204937 27.008528 -184.912714 -0.000008 -0.000006 -18.285086 -7.842215 43.161198 -231.630429
-5.659500 23.593403 9.036907 6.040005 23.144496 4.351288 -0.204900 1.598101 7.917309 -5.957692 0.461536 -2.897850 -0.000000 0.000002 3.404099 -1.688803 -18.324185 -2.186648 0.000001 0.000001 7.928600 3.912709 -5.126895 -4.003599 0.000000 -0.000001 2.173905 -0.334374 -10.766817 1.589331 2.833794 -1.396298 4.843299 28.897902 -3.091872 -45.601051 4.363597 0.000005 -0.000010 -92.117320 -51.252455 -136.628304 -0.000000 -0.000001 -10.306897 589.706949 -158.497217 555.437650 0.000007 0.000001 -12.404891 -322.990630 360.202102 -339.302652 -2.354800 -1.897201 5.063098 3.970534 12.463550 -3.845620 -4.375802 0.000006 -0.000009 83.296561 0.655507 154.117126 0.000000 0.000003 -10.004995 -576.129189 -168.185731 -550.180590 0.000003 0.000003 -13.174892 -26.697901 -15.099173 354.671014 2.240598 0.386799 -2.614104 145.689233 -22.851487 116.232949 0.000002 0.000001 -18.592894 -111.003647 36.484111 138.568487 0.000002 0.000000 -18.765799 9.567631 37.301046 -27.558732 -2.014894 -0.220894 -2.615900 -124.128074 -10.792210 -109.847918 -0.000001 0.000006 -18.633883 185.132769 27.039609 -184.832077 -0.000008 -0.000005 -18.285091 -7.886518 43.077884 -231.434021
-5.666299 23.614300 9.042404 6.032744 22.820874 4.354353 -0.204900 1.598101 7.917304 -5.974924 0.369424 -2.869344 -0.000000 0.000002 3.404102 -1.676441 -18.279982 -2.194196 -0.000001 0.000000 7.928603 4.138463 -4.630616 -4.044045 0.000000 0.000002 2.173896 -0.397359 -10.615323 1.711558 2.833796 -1.396302 4.843305 28.518403 -2.772934 -45.318749 4.363599 0.000008 -0.000002 -93.137880 -51.558062 -137.904087 -0.000001 -0.000000 -10.306889 588.239005 -158.612060 555.227170 0.000010 0.000003 -12.404900 -322.399737 360.041893 -338.874399 -2.354802 -1.897202 5.063104 4.002648 12.487388 -3.745948 -4.375801 0.000003 -0.000010 83.401828 0.507374 154.259904 -0.000001 0.000004 -10.004988 -574.689713 -167.895667 -549.848478 -0.000001 0.000003 -13.174899 -27.859788 -15.267476 353.779811 2.240597 0.386804 -2.614105 145.611287 -23.057805 116.028481 0.000000 -0.000001 -18.592892 -111.003934 36.351138 138.496770 0.000002 0.000001 -18.765795 9.711248 37.195021 -27.678455 -2.014897 -0.220894 -2.615897 -124.008737 -10.876648 -109.548762 0.000000 0.000004 -18.633884 185.100326 27.062640 -184.747506 -0.000008 -0.000006 -18.285088 -7.941061 42.959895 -231.160212
